<svg width="18" height="19" viewBox="0 0 18 19" fill="none" xmlns="http://www.w3.org/2000/svg">
<path d="M0 0.567499C0 0.623751 0.66375 1.61375 0.7875 1.7375C0.82125 1.77125 1.1475 2.24375 1.51875 2.80625C1.87875 3.3575 2.21625 3.84125 2.26125 3.875C2.295 3.90875 2.55375 4.28 2.835 4.71875C3.11625 5.14625 3.63375 5.91125 3.9825 6.40625C4.86 7.62125 4.86 7.62125 5.58 8.7125C5.94 9.24125 6.3675 9.84875 6.53625 10.0625L6.84 10.4563L6.615 10.7375C6.49125 10.895 6.10875 11.3338 5.77125 11.7275C5.4225 12.1213 5.04 12.56 4.91625 12.7288C4.7925 12.8863 4.57875 13.1225 4.455 13.2575C4.21875 13.4938 3.4425 14.3937 2.68875 15.2937C2.475 15.5412 2.14875 15.9238 1.94625 16.1375C1.51875 16.61 1.31625 16.8463 0.73125 17.555C0.48375 17.8475 0.21375 18.1513 0.14625 18.23C-0.10125 18.4662 -0.0225 18.5 0.82125 18.5C1.58625 18.5 1.665 18.4775 1.9125 18.185C2.05875 18.0163 2.32875 17.7013 2.52 17.4763C2.71125 17.2513 3.1275 16.7788 3.43125 16.4188C3.74625 16.0588 4.095 15.6538 4.21875 15.53C4.3425 15.395 4.64625 15.035 4.89375 14.7312C5.14125 14.4162 5.445 14.0675 5.56875 13.9325C5.6925 13.8088 6.0525 13.4037 6.35625 13.0437C6.67125 12.6838 7.07625 12.2113 7.2675 11.9863L7.61625 11.5925L7.7625 11.8738C7.84125 12.02 7.9425 12.1662 7.97625 12.2C8.02125 12.2337 8.3475 12.7063 8.71875 13.2688C9.09 13.82 9.41625 14.3038 9.45 14.3375C9.495 14.3713 10.0688 15.2037 10.7438 16.1937C11.4188 17.1837 12.0375 18.0613 12.1163 18.14C12.195 18.2188 12.2625 18.3425 12.2625 18.3987C12.2625 18.455 13.3763 18.5 14.9625 18.5C16.4475 18.5 17.6625 18.4662 17.6625 18.4325C17.6625 18.3762 16.9988 17.3863 16.875 17.2625C16.8413 17.2287 16.515 16.745 16.1438 16.1937C15.7838 15.6312 15.4463 15.1588 15.4013 15.125C15.3675 15.0912 15.1088 14.7088 14.8275 14.2812C14.5463 13.8425 14.0288 13.0887 13.68 12.5938C12.78 11.345 12.8025 11.3675 11.9588 10.1187C11.5538 9.5 11.0925 8.8475 10.9463 8.67875C10.5975 8.24 10.62 8.04875 11.0925 7.52C11.3175 7.28375 11.9588 6.5525 12.51 5.9C13.0613 5.2475 13.68 4.53875 13.8825 4.325C14.085 4.11125 14.445 3.68375 14.6925 3.38C14.9288 3.07625 15.2325 2.71625 15.3563 2.58125C15.7613 2.15375 16.785 0.96125 16.9538 0.725C17.1113 0.5 17.1 0.5 16.2675 0.5H15.435L14.94 1.085C14.6813 1.41125 14.355 1.7825 14.2313 1.9175C14.1075 2.04125 13.7588 2.44625 13.4438 2.80625C13.14 3.16625 12.7013 3.6725 12.4875 3.92C12.2738 4.17875 12.0713 4.40375 12.0375 4.4375C12.0038 4.47125 11.6775 4.8425 11.3063 5.28125C10.935 5.70875 10.5413 6.17 10.4175 6.29375C10.305 6.4175 10.1363 6.63125 10.0463 6.76625C9.84375 7.08125 9.8325 7.07 8.94375 5.73125C8.5725 5.16875 8.22375 4.6625 8.15625 4.595C8.1 4.5275 7.43625 3.57125 6.69375 2.48L5.34375 0.5H2.6775C1.20375 0.5 0 0.533751 0 0.567499ZM5.36625 2.98625C6.19875 4.17875 6.76125 4.9775 7.86375 6.58625C8.145 6.98 8.3925 7.32875 8.4375 7.3625C8.4825 7.39625 8.69625 7.7 8.92125 8.04875C9.135 8.40875 9.39375 8.78 9.495 8.8925C9.59625 9.01625 10.125 9.75875 10.6763 10.5688C11.2275 11.3675 11.7225 12.0763 11.7788 12.1438C11.835 12.2 12.2738 12.8413 12.7688 13.55C13.2525 14.2587 13.68 14.8663 13.7138 14.9C13.7475 14.9338 13.8825 15.1025 14.0175 15.2937C14.1413 15.4737 14.4788 15.9575 14.7488 16.3625C15.03 16.7675 15.3 17.1612 15.345 17.2287C15.4013 17.3413 15.165 17.375 14.2875 17.375H13.1625L12.7463 16.7225C12.5213 16.3737 12.3075 16.0588 12.2738 16.025C12.24 15.9913 12.0263 15.71 11.8125 15.4062C11.5988 15.0912 11.3625 14.7763 11.2838 14.6975C11.205 14.6188 11.1375 14.5062 11.1375 14.45C11.1375 14.3937 11.07 14.2812 11.0025 14.2025C10.9238 14.1238 10.6538 13.7525 10.4063 13.3812C10.1588 13.01 9.93375 12.6837 9.88875 12.65C9.855 12.6163 9.66375 12.335 9.45 12.0312C9.23625 11.7162 9.045 11.4463 9.01125 11.4125C8.9775 11.3788 8.64 10.895 8.26875 10.3438C7.8975 9.78125 7.5375 9.275 7.47 9.19625C7.4025 9.12875 7.1775 8.8025 6.96375 8.465C6.76125 8.13875 6.55875 7.84625 6.525 7.8125C6.48 7.77875 6.28875 7.4975 6.075 7.19375C5.86125 6.87875 5.67 6.60875 5.63625 6.575C5.59125 6.54125 5.36625 6.215 5.11875 5.84375C4.87125 5.4725 4.64625 5.14625 4.6125 5.1125C4.57875 5.07875 4.275 4.65125 3.9375 4.15625C3.61125 3.66125 3.29625 3.23375 3.2625 3.2C3.1725 3.1325 2.3625 1.86125 2.3625 1.79375C2.3625 1.76 2.84625 1.7375 3.43125 1.7375H4.48875L5.36625 2.98625Z" fill="#333333"/>
</svg>
